<svg xmlns="http://www.w3.org/2000/svg" width="300" height="300" viewBox="0 0 300 300">
  <rect width="300" height="300" rx="16" fill="#3b82f6"/>
  <text x="150" y="28" font-family="system-ui,sans-serif" font-size="20" font-weight="bold" fill="#fff" text-anchor="middle" dominant-baseline="central">C</text>
  <text x="150" y="48" font-family="system-ui,sans-serif" font-size="11" fill="#fff" opacity="0.6" text-anchor="middle">ISL Hand Sign</text>
  <g>
    <ellipse cx="150" cy="188" rx="46" ry="40" fill="#F5D0C5" stroke="#5D4037" stroke-width="2"/>
    <rect x="128" y="222" width="44" height="28" rx="8" fill="#F5D0C5" stroke="#5D4037" stroke-width="1.5"/>
    <rect x="111.5" y="126" width="19" height="29" rx="10" fill="#F5D0C5" stroke="#5D4037" stroke-width="2" transform="rotate(-7,121,155)"/><circle cx="124.29047227193898" cy="128.2012539056843" r="12" fill="#F5D0C5" stroke="#5D4037" stroke-width="1.5"/>
    <rect x="134.5" y="118" width="19" height="32" rx="10" fill="#F5D0C5" stroke="#5D4037" stroke-width="2" transform="rotate(0,144,150)"/><circle cx="144" cy="120" r="12" fill="#F5D0C5" stroke="#5D4037" stroke-width="1.5"/>
    <rect x="158" y="124" width="18" height="29" rx="9" fill="#F5D0C5" stroke="#5D4037" stroke-width="2" transform="rotate(7,167,153)"/><circle cx="163.709527728061" cy="126.20125390568431" r="11" fill="#F5D0C5" stroke="#5D4037" stroke-width="1.5"/>
    <rect x="179" y="139" width="16" height="23" rx="8" fill="#F5D0C5" stroke="#5D4037" stroke-width="2" transform="rotate(14,187,162)"/><circle cx="181.91964019240697" cy="141.62378974820408" r="10" fill="#F5D0C5" stroke="#5D4037" stroke-width="1.5"/>
    <rect x="68" y="174" width="42" height="19" rx="10" fill="#F5D0C5" stroke="#5D4037" stroke-width="2" transform="rotate(-22,104,188)"/>
  </g>
  
  <text x="150" y="264" font-family="system-ui,sans-serif" font-size="12" fill="#fff" opacity="0.9" text-anchor="middle">Curved hand forming C shape</text>
</svg>