<svg xmlns="http://www.w3.org/2000/svg" width="300" height="300" viewBox="0 0 300 300">
  <rect width="300" height="300" rx="16" fill="#3b82f6"/>
  <text x="150" y="28" font-family="system-ui,sans-serif" font-size="20" font-weight="bold" fill="#fff" text-anchor="middle" dominant-baseline="central">L</text>
  <text x="150" y="48" font-family="system-ui,sans-serif" font-size="11" fill="#fff" opacity="0.6" text-anchor="middle">ISL Hand Sign</text>
  <g>
    <ellipse cx="150" cy="188" rx="46" ry="40" fill="#F5D0C5" stroke="#5D4037" stroke-width="2"/>
    <rect x="128" y="222" width="44" height="28" rx="8" fill="#F5D0C5" stroke="#5D4037" stroke-width="1.5"/>
    <rect x="111.5" y="85" width="19" height="70" rx="10" fill="#F5D0C5" stroke="#5D4037" stroke-width="2" transform="rotate(-7,121,155)"/>
    <rect x="136.5" y="140" width="15" height="12" rx="8" fill="#F5D0C5" stroke="#5D4037" stroke-width="1.5" transform="rotate(0,144,150)"/>
    <rect x="160" y="143" width="14" height="12" rx="7" fill="#F5D0C5" stroke="#5D4037" stroke-width="1.5" transform="rotate(7,167,153)"/>
    <rect x="181" y="152" width="12" height="12" rx="6" fill="#F5D0C5" stroke="#5D4037" stroke-width="1.5" transform="rotate(14,187,162)"/>
    <rect x="68" y="174" width="42" height="19" rx="10" fill="#F5D0C5" stroke="#5D4037" stroke-width="2" transform="rotate(-22,104,188)"/>
  </g>
  
  <text x="150" y="264" font-family="system-ui,sans-serif" font-size="12" fill="#fff" opacity="0.9" text-anchor="middle">L-shape: index up, thumb out</text>
</svg>